cover

 
http://www.imdb.com/title/tt1013743/

Genre:Thriller / Comedie / Actiune
Language:English
IMDb:http://www.imdb.com/title/tt1013743/
Source:720p BluRay x264-ZMG
Subtitles:Romana

General
Complete name :Knight.and.Day.2010.720p.H264.Feel-Free
Format : MPEG-4
Format profile : Base Media
Codec ID : isom
File size : 1.38 GiB
Duration : 1h 49mn
Overall bit rate : 1 804 Kbps
Video #1
ID : 1
Format : AVC
Format/Info : Advanced Video Codec
Format profile : Main@L4.0
Format settings, CABAC : No
Format settings, ReFrames : 2 frames
Codec ID : avc1
Codec ID/Info : Advanced Video Coding
Duration : 1h 49mn
Bit rate mode : Variable
Bit rate : 1 480 Kbps
Width : 1 280 pixels
Height : 528 pixels
Display aspect ratio : 2.40:1
Frame rate mode : Constant
Frame rate : 23.976 fps
Resolution : 24 bits
Colorimetry : 4:2:0
Scan type : Progressive
Bits/(Pixel*Frame) : 0.091
Stream size : 1.13 GiB (82%)
Audio #2
ID : 2
Format : AAC
Format/Info : Advanced Audio Codec
Format version : Version 4
Format profile : LC
Format settings, SBR : No
Codec ID : 40
Duration : 1h 49mn
Bit rate mode : Variable
Bit rate : 320 Kbps
Channel(s) : 6 channels
Channel positions : Front: L C R, Rear: L R, LFE
Sampling rate : 48.0 KHz
Resolution : 16 bits
Stream size : 250 MiB (18%)

Plot:
June Havens (Diaz) finds her everyday life tangled with that of a secret agent (Cruise) who has realized

screens
 
http://img534.imageshack.us/img534/1466/20423251.jpg 
http://img225.imageshack.us/img225/2081/37874137.jpg 
http://img826.imageshack.us/img826/9338/49631229.jpg 
http://img193.imageshack.us/img193/2154/52608432.jpg 
http://img840.imageshack.us/img840/102/26757302.jpg

